<svg width="15" height="15" viewBox="0 0 15 15" fill="none" xmlns="http://www.w3.org/2000/svg">
<path d="M0.840892 7.22928C0.840892 6.10476 0.798761 4.97848 0.851538 3.85662C0.918064 2.45021 1.49329 1.30449 2.8065 0.630665C3.46378 0.293533 4.17605 0.176884 4.90827 0.176C6.9444 0.173791 8.98097 0.175558 11.0175 0.179976C11.6079 0.181302 12.1844 0.276743 12.733 0.499878C13.9309 0.98724 14.6219 1.89436 14.8818 3.13685C14.9523 3.47398 14.9918 3.82393 14.9936 4.16857C15.0033 6.22981 15.0002 8.29148 14.9953 10.3532C14.9936 11.0155 14.8676 11.6566 14.578 12.2562C14.0609 13.3273 13.1841 13.9423 12.0349 14.1739C11.6265 14.256 11.2016 14.2896 10.7838 14.2923C8.87498 14.3042 6.96569 14.2971 5.0564 14.2976C4.35434 14.2976 3.66557 14.218 3.0154 13.937C1.86761 13.4413 1.19747 12.5527 0.948663 11.3509C0.862623 10.9338 0.836902 10.4999 0.829363 10.0726C0.81251 9.12482 0.824038 8.1766 0.824038 7.22839C0.829804 7.22839 0.835126 7.22839 0.840892 7.22839V7.22928ZM13.9283 7.64506C13.9283 7.57259 13.9283 7.53062 13.9283 7.4882C13.9283 6.40787 13.9327 5.3271 13.9247 4.24678C13.9229 3.97813 13.9025 3.70639 13.8555 3.44217C13.687 2.50367 13.1974 1.80908 12.2762 1.464C11.8203 1.29344 11.3449 1.24307 10.8601 1.24351C8.89538 1.24616 6.9311 1.24175 4.96637 1.24749C4.68031 1.24837 4.39026 1.26782 4.10908 1.31686C3.19324 1.47593 2.5027 1.94208 2.14435 2.8249C1.97272 3.24775 1.90087 3.6927 1.90042 4.1478C1.89865 6.11581 1.89821 8.08382 1.90042 10.0514C1.90042 10.2931 1.90442 10.5379 1.93945 10.776C1.97892 11.0429 2.05565 11.304 2.12085 11.5877C2.21443 11.5267 2.26986 11.4914 2.32486 11.4547C3.13292 10.9148 3.94099 10.3753 4.74817 9.83354C5.00141 9.66343 5.27638 9.56623 5.58328 9.55032C6.06715 9.52513 6.45655 9.72087 6.8149 10.0275C7.50233 10.6156 8.30951 10.6063 8.99251 10.0218C9.92431 9.22423 10.8548 8.42625 11.7906 7.63357C11.9152 7.52797 12.0562 7.42987 12.2061 7.36757C12.8168 7.11351 13.3828 7.20895 13.9278 7.64461L13.9283 7.64506Z" fill="white" style="fill:white;fill-opacity:1;"/>
<path d="M5.78769 2.73566C6.72348 2.73566 7.47744 3.48106 7.47966 4.40895C7.48187 5.33772 6.70663 6.10919 5.78059 6.09903C4.85012 6.08931 4.09528 5.33153 4.09705 4.40983C4.09882 3.48283 4.85367 2.73566 5.78769 2.73566Z" fill="white" style="fill:white;fill-opacity:1;"/>
</svg>
