<svg width="18" height="18" viewBox="0 0 18 18" fill="none" xmlns="http://www.w3.org/2000/svg">
<path d="M5.03999 4.518C5.18399 4.518 5.30999 4.572 5.41799 4.68L13.32 12.564C13.536 12.78 13.536 13.122 13.32 13.32C13.104 13.536 12.762 13.536 12.564 13.32L4.66199 5.418C4.44599 5.202 4.44599 4.86 4.66199 4.662C4.75199 4.554 4.89599 4.518 5.03999 4.518Z" fill="white" style="fill:white;fill-opacity:1;"/>
<path d="M12.924 4.518C13.068 4.518 13.194 4.572 13.302 4.68C13.518 4.896 13.518 5.238 13.302 5.436L5.39999 13.338C5.18399 13.554 4.84199 13.554 4.64399 13.338C4.42799 13.122 4.42799 12.78 4.64399 12.582L12.546 4.662C12.654 4.554 12.798 4.518 12.924 4.518Z" fill="white" style="fill:white;fill-opacity:1;"/>
</svg>
