<?xml version="1.0" encoding="utf-8"?>
<!-- Generator: Adobe Illustrator 24.0.2, SVG Export Plug-In . SVG Version: 6.00 Build 0)  -->
<svg version="1.1" id="Livello_1" xmlns="http://www.w3.org/2000/svg" xmlns:xlink="http://www.w3.org/1999/xlink" x="0px" y="0px"
	 viewBox="0 0 100 100" style="enable-background:new 0 0 100 100;" xml:space="preserve">
<path class="st0" d="M90,46.9L58.3,15.3c-4.6-4.6-12.1-4.6-16.6,0L10,46.9c-1,1-1,2.6,0,3.6c1,1,2.6,1,3.6,0l2-2v32.3
	c0,4,3.3,7.3,7.3,7.3h16.9h20.4H77c4,0,7.3-3.3,7.3-7.3V48.5l2,2c0.5,0.5,1.1,0.7,1.8,0.7c0.7,0,1.3-0.2,1.8-0.7
	C91,49.5,91,47.9,90,46.9z M57.6,83.1H42.4V63c0-1.6,1.3-2.9,2.9-2.9h9.5c1.6,0,2.9,1.3,2.9,2.9V83.1z M79.3,80.9
	c0,1.2-1,2.2-2.2,2.2H62.7V63c0-4.4-3.6-8-8-8h-9.5c-4.4,0-8,3.6-8,8v20H23c-1.2,0-2.2-1-2.2-2.2V43.4l24.5-24.5
	c2.6-2.6,6.8-2.6,9.4,0l24.5,24.5V80.9z" fill="white" style="fill:white;fill-opacity:1;" />
</svg>
