<svg width="28" height="28" viewBox="0 0 28 28" fill="none" xmlns="http://www.w3.org/2000/svg">
<path d="M13.1321 23.716C12.9361 23.632 12.712 23.604 12.544 23.492C11.956 23.156 11.648 22.624 11.62 21.952C11.62 21.56 11.62 21.56 11.256 21.42C11.032 21.336 10.78 21.224 10.556 21.112C10.444 21.056 10.36 21.056 10.276 21.168C9.96805 21.504 9.63205 21.756 9.18405 21.812C8.62405 21.896 8.12005 21.784 7.70005 21.42C7.33605 21.084 6.97205 20.748 6.63605 20.384C6.02005 19.712 6.04805 18.676 6.69205 18.032C6.94405 17.78 7.02805 17.584 6.83205 17.276C6.72005 17.08 6.66405 16.856 6.58005 16.66C6.55205 16.548 6.49605 16.492 6.35605 16.492C6.10405 16.492 5.82405 16.492 5.60005 16.408C4.90005 16.184 4.45205 15.68 4.36805 14.952C4.31205 14.392 4.31205 13.804 4.36805 13.216C4.48005 12.376 5.20805 11.76 6.04805 11.732C6.49605 11.732 6.49605 11.732 6.66405 11.312C6.74805 11.088 6.83205 10.892 6.94405 10.668C7.00005 10.528 7.00005 10.472 6.88805 10.388C6.58005 10.108 6.32805 9.77202 6.24405 9.35202C6.13205 8.76402 6.27205 8.23202 6.66405 7.78402C6.97205 7.44802 7.28005 7.14002 7.61605 6.83202C8.31605 6.18802 9.35205 6.18802 10.0521 6.86002C10.304 7.08402 10.472 7.16802 10.78 6.97202C10.976 6.86002 11.2281 6.77602 11.4521 6.72002C11.5921 6.69202 11.62 6.60802 11.62 6.49602C11.592 6.07602 11.648 5.68402 11.8721 5.32002C12.2081 4.78802 12.712 4.50802 13.328 4.48002C13.86 4.48002 14.392 4.45202 14.896 4.50802C15.708 4.59202 16.352 5.34802 16.324 6.16002C16.324 6.55202 16.436 6.72002 16.8 6.80402C16.996 6.86002 17.22 6.97202 17.388 7.05602C17.5 7.11202 17.584 7.11202 17.668 7.00002C17.976 6.66402 18.312 6.41202 18.76 6.32802C19.32 6.24402 19.8241 6.35602 20.2441 6.72002C20.6081 7.05602 20.972 7.42002 21.3081 7.78402C21.924 8.45602 21.868 9.49202 21.2241 10.164C20.944 10.472 20.944 10.472 21.1121 10.836C21.2241 11.06 21.3081 11.312 21.392 11.564C21.42 11.62 21.504 11.676 21.56 11.676C21.7281 11.704 21.924 11.676 22.0921 11.704C22.848 11.816 23.4081 12.348 23.576 13.104C23.576 13.132 23.6041 13.16 23.6041 13.216C23.6041 13.804 23.6041 14.364 23.6041 14.952C23.6041 14.98 23.576 15.036 23.576 15.064C23.4361 15.596 23.1281 15.988 22.6521 16.268C22.3161 16.436 21.952 16.492 21.588 16.464C21.476 16.464 21.42 16.492 21.364 16.604C21.2801 16.828 21.1961 17.052 21.1121 17.276C21.056 17.416 20.944 17.556 20.944 17.668C20.972 17.78 21.1121 17.892 21.2241 17.976C21.8961 18.676 21.896 19.712 21.2521 20.412C20.944 20.748 20.636 21.056 20.3 21.364C19.852 21.784 19.2921 21.924 18.7041 21.784C18.3121 21.7 18.0041 21.504 17.7521 21.196C17.6121 21.056 17.5001 21 17.3321 21.112C17.1081 21.224 16.8841 21.308 16.6321 21.392C16.352 21.504 16.352 21.504 16.352 21.812C16.352 22.484 16.1 23.044 15.54 23.408C15.344 23.548 15.092 23.604 14.868 23.688C14.308 23.716 13.72 23.716 13.1321 23.716ZM14 5.57202C13.804 5.57202 13.6081 5.57202 13.4121 5.57202C13.0201 5.57202 12.74 5.82402 12.74 6.24402C12.74 6.49602 12.74 6.77602 12.74 7.02802C12.74 7.33602 12.5721 7.53202 12.292 7.61602C11.7041 7.78402 11.1441 8.00802 10.6121 8.31602C10.332 8.48402 10.108 8.42802 9.85605 8.20402C9.68805 8.03602 9.49205 7.84002 9.32405 7.67202C9.01605 7.39202 8.65205 7.39202 8.37205 7.67202C8.09205 7.95202 7.84005 8.20402 7.56005 8.48402C7.28005 8.76402 7.28005 9.15602 7.56005 9.43602C7.72805 9.60402 7.92405 9.80002 8.09205 9.96802C8.31605 10.22 8.37205 10.444 8.20405 10.724C7.89605 11.256 7.67205 11.788 7.53205 12.376C7.44805 12.684 7.25205 12.824 6.91605 12.852C6.66405 12.852 6.41205 12.852 6.13205 12.852C5.76805 12.852 5.48805 13.132 5.48805 13.496C5.48805 13.888 5.48805 14.28 5.48805 14.672C5.48805 15.064 5.76805 15.316 6.16005 15.344C6.41205 15.344 6.66405 15.344 6.94405 15.344C7.25205 15.344 7.44805 15.484 7.53205 15.792C7.70005 16.38 7.92405 16.94 8.23205 17.444C8.40005 17.752 8.37205 17.976 8.12005 18.2C7.95205 18.368 7.75605 18.564 7.58805 18.732C7.30805 19.012 7.30805 19.376 7.58805 19.684C7.86805 19.964 8.14805 20.244 8.40005 20.496C8.68005 20.776 9.04405 20.776 9.35205 20.496C9.52005 20.328 9.68805 20.16 9.88405 19.992C10.136 19.74 10.36 19.712 10.668 19.88C11.172 20.16 11.732 20.384 12.292 20.552C12.628 20.636 12.768 20.832 12.768 21.196C12.768 21.448 12.768 21.7 12.768 21.952C12.768 22.344 13.048 22.596 13.4121 22.596C13.8041 22.596 14.196 22.596 14.588 22.596C14.98 22.596 15.26 22.316 15.26 21.924C15.26 21.672 15.26 21.42 15.26 21.14C15.26 20.832 15.4001 20.636 15.736 20.552C16.324 20.384 16.856 20.16 17.388 19.88C17.696 19.712 17.92 19.74 18.1721 19.992C18.34 20.16 18.5361 20.356 18.7041 20.524C18.9841 20.804 19.348 20.804 19.628 20.524C19.908 20.244 20.188 19.964 20.4681 19.684C20.748 19.404 20.748 19.04 20.4681 18.76C20.3 18.564 20.104 18.396 19.936 18.2C19.712 17.948 19.6561 17.724 19.8241 17.444C20.1041 16.94 20.328 16.38 20.496 15.82C20.58 15.484 20.7761 15.344 21.14 15.344C21.392 15.344 21.616 15.344 21.868 15.344C22.26 15.344 22.5121 15.064 22.5401 14.672C22.5401 14.28 22.5401 13.916 22.5401 13.524C22.5401 13.104 22.288 12.852 21.868 12.852C21.616 12.852 21.364 12.852 21.0841 12.852C20.7761 12.852 20.58 12.684 20.496 12.404C20.328 11.816 20.104 11.256 19.796 10.752C19.628 10.444 19.656 10.248 19.908 9.99602C20.076 9.82802 20.272 9.63202 20.4401 9.46402C20.72 9.18402 20.72 8.82002 20.4401 8.51202C20.16 8.23202 19.88 7.95202 19.628 7.70002C19.348 7.42002 18.984 7.42002 18.676 7.70002C18.508 7.86802 18.3401 8.03602 18.1441 8.20402C17.8921 8.45602 17.668 8.48402 17.36 8.31602C16.856 8.00802 16.2961 7.81202 15.736 7.64402C15.4001 7.56002 15.26 7.36402 15.26 7.02802C15.26 6.77602 15.26 6.52402 15.26 6.24402C15.26 5.85202 14.9801 5.60002 14.616 5.60002C14.392 5.57202 14.196 5.57202 14 5.57202Z" fill="white" style="fill:white;fill-opacity:1;"/>
<path d="M18.2 14.0841C18.2 16.4081 16.324 18.2841 14 18.2841C11.676 18.2841 9.80005 16.4081 9.80005 14.0841C9.80005 11.7601 11.676 9.91205 14 9.91205C16.324 9.88405 18.2 11.7601 18.2 14.0841ZM17.08 14.0841C17.08 12.4041 15.736 11.0321 14.028 11.0041C12.348 11.0041 10.976 12.3761 10.948 14.0561C10.948 15.7361 12.32 17.1081 14 17.1361C15.68 17.1361 17.052 15.7921 17.08 14.0841Z" fill="white" style="fill:white;fill-opacity:1;"/>
</svg>
