<svg width="111" height="131" viewBox="0 0 111 131" fill="none" xmlns="http://www.w3.org/2000/svg">
<path d="M98.9775 69.2715L98.8988 69.0772C98.7205 68.5671 98.4935 67.9902 98.2041 67.3666L95.3766 60.4043C95.2126 59.9999 93.6855 56.342 90.6019 52.2808C86.483 46.8592 81.3323 43.0113 75.706 41.1552C73.0846 40.2895 70.0498 39.9914 66.9299 40.2568C67.0304 37.1723 66.9469 34.4082 66.6786 31.9966C66.1199 26.9725 64.1222 22.9094 60.7427 19.9194C57.9602 17.4578 54.9964 16.4619 53.4075 15.9283L41.2356 11.8284L40.758 15.5706C39.3967 15.2995 37.9821 15.2221 36.5325 15.3399L27.6666 16.0677L27.5813 17.1991C26.4104 17.2552 25.2365 17.4596 24.074 17.813L15.7052 20.3576L16.7735 29.0082C16.8945 29.9864 17.4485 33.3723 19.987 43.6486C20.2709 44.7991 20.6635 46.2307 21.1155 47.8873C22.7375 53.8196 25.1885 62.7827 26.1827 71.266C27.5593 83.0224 25.1833 85.6116 25.1584 85.6351L21.8644 89.0127L22.2449 93.7024C22.3147 94.5649 22.6835 97.7285 24.5123 102.267C26.8111 107.971 30.4415 113.555 35.3092 118.868L43.0512 127.296L50.6964 118.792C50.9635 118.505 58.0382 110.99 67.0085 108.262C67.6036 108.081 68.2019 107.923 68.7875 107.792C69.5569 107.681 70.3078 107.515 71.0219 107.298C78.1141 105.141 80.0572 99.1132 81.0992 95.8738C81.7159 93.9597 82.2978 92.1538 83.9327 90.0561C85.9956 87.4095 89.4487 84.766 94.1945 82.2034L101.013 78.5206L99.4339 70.9658C99.3582 70.6056 99.2159 70.0206 98.9666 69.2766L98.978 69.2732L98.9775 69.2715Z" fill="#EAA1FF" style="fill:#EAA1FF;fill:color(display-p3 0.9176 0.6314 1.0000);fill-opacity:1;"/>
<path d="M92.7368 67.1693L93.0106 67.0328L91.0331 62.1633C90.8217 61.6437 85.7294 49.3828 74.2254 45.5874C70.9113 44.494 66.6696 44.5788 62.5839 45.8211C62.3377 45.896 62.093 45.9757 61.8509 46.0582C62.3676 40.6929 62.425 36.1486 62.0212 32.5183C61.5941 28.6768 60.1157 25.6128 57.6283 23.4128C55.5553 21.5801 53.2659 20.8104 51.8991 20.3512L45.1585 18.0815L44.5911 22.5359C42.4068 20.6359 39.7642 19.7589 36.9075 19.994L32.0368 20.3943L31.8709 22.6078C29.8211 21.7299 27.6219 21.6142 25.429 22.2809L20.833 23.6784L21.4191 28.4297C21.4813 28.9272 21.9189 31.9421 24.5325 42.5239C24.8029 43.6181 25.1855 45.0172 25.6323 46.6506C27.2916 52.7171 29.7989 61.8831 30.8314 70.715C32.2672 82.9822 29.9934 87.3663 28.5109 88.8871L26.7022 90.7412L26.9116 93.3163C26.9518 93.8116 27.2349 96.4884 28.8569 100.517C30.9464 105.702 34.2795 110.812 38.7638 115.707L43.0177 120.337L47.2278 115.655C47.3067 115.569 55.1862 106.975 65.6483 103.794C66.4228 103.559 67.2033 103.355 67.9693 103.191C68.5588 103.115 69.1275 102.994 69.6639 102.831C74.4066 101.389 75.6978 97.3813 76.6406 94.4541C77.9701 90.327 79.7907 84.6752 91.9701 78.0974L95.7137 76.0754L94.8457 71.9261C94.7497 71.4638 94.2665 69.4706 92.7357 67.1714L92.7368 67.1693ZM71.3969 68.5152C70.5335 69.3367 69.3877 70.0613 67.4688 70.6447C66.8117 70.8445 66.088 71.0184 65.3103 71.1608L65.3576 70.9708C66.2564 67.372 66.8151 66.0931 68.339 65.6103L68.4433 65.5785C68.6308 65.5215 68.7699 65.481 68.8757 65.4542C69.0604 65.6748 69.3193 66.0167 69.5569 66.3295C70.0118 66.9294 70.6106 67.7215 71.3953 68.5157L71.3969 68.5152Z" fill="black" style="fill:black;fill-opacity:1;"/>
<path d="M89.7243 66.4935L90.5156 66.0968L89.2176 62.8998C89.0198 62.4134 84.2636 50.9589 73.6065 47.4418C70.6684 46.4719 66.8593 46.5618 63.1534 47.6886C61.8556 48.0832 60.6366 48.5905 59.537 49.1857C60.2201 43.6473 60.6175 37.6085 60.0767 32.7369C59.7039 29.39 58.4434 26.7441 56.3289 24.8743C54.5526 23.3028 52.5788 22.6395 51.2717 22.2011L46.8013 20.6963L45.9461 27.4084C45.2933 26.2104 44.5589 25.2128 43.7357 24.409C41.8747 22.5881 39.5671 21.7353 37.0648 21.9407L33.8657 22.2036L33.6264 25.3942C33.6222 25.4505 33.606 25.6666 33.5862 26.0292C33.1657 25.6478 32.7335 25.3161 32.2876 25.0329C30.3355 23.7969 28.1605 23.4911 25.9969 24.1489L22.9791 25.0665L23.3647 28.186C23.4008 28.4802 23.7957 31.3608 26.4354 42.0517C26.701 43.1244 27.0817 44.517 27.522 46.1292C29.1965 52.2515 31.7267 61.5046 32.7788 70.4831C34.2315 82.8995 32.0245 88.0831 29.9158 90.245L28.7277 91.4633L28.8646 93.1554C28.8872 93.4289 29.1254 95.9402 30.6759 99.7861C32.6781 104.755 35.8853 109.667 40.2095 114.388L43.0045 117.429L45.7712 114.35C45.8524 114.26 54.0079 105.291 65.0782 101.925C65.9325 101.665 66.7945 101.442 67.6412 101.263C68.1511 101.2 68.6384 101.098 69.0932 100.96C72.8529 99.8167 73.8728 96.6514 74.7726 93.858C76.1233 89.6659 78.1633 83.3299 91.0375 76.3775L93.496 75.0497L92.9254 72.3237C92.8441 71.9332 92.1995 69.1923 89.72 66.4913L89.7243 66.4935ZM63.4083 70.6992L63.4574 70.5033C64.3673 66.8587 65.113 64.5841 67.7649 63.7459L67.8774 63.7117C69.6301 63.1788 69.7413 63.3277 71.1237 65.1504C71.8229 66.0735 72.7717 67.3253 74.1608 68.3207C72.8444 70.0306 71.3844 71.4966 68.0372 72.5143C67.2628 72.7498 66.4101 72.9505 65.4992 73.1121C64.7741 73.2403 64.0499 73.0612 63.612 72.6461C63.5595 72.5964 63.5086 72.5462 63.4599 72.4971C63.1663 72.1995 63.241 71.373 63.4088 70.7009L63.4083 70.6992Z" fill="#FCEA4F" style="fill:#FCEA4F;fill:color(display-p3 0.9882 0.9176 0.3098);fill-opacity:1;"/>
<path d="M81.1889 66.6736C80.3981 66.9141 79.6654 67.3746 79.0949 68.029C77.0017 70.4293 75.54 74.1335 69.1228 76.0847C68.2326 76.3553 67.2469 76.5929 66.1503 76.7879C64.3155 77.1151 62.3706 76.6293 61.0217 75.3502C60.9413 75.2734 60.8627 75.1962 60.7856 75.1185C59.3934 73.7087 59.2916 71.7221 59.7722 69.7997C60.6388 66.335 61.6993 61.7448 66.6535 60.1781C66.6992 60.1642 66.7464 60.1499 66.7921 60.136C75.4967 57.4893 72.7467 68.6371 82.2584 65.7451C83.2725 65.4368 84.4252 64.9692 85.7454 64.3087C85.7454 64.3087 81.5619 54.0056 72.4251 50.9898C70.1209 50.23 67.0269 50.4166 64.2422 51.2633C62.033 51.935 60.0193 53.0211 58.7509 54.3792C54.3081 59.1335 53.0945 64.2688 53.0871 64.303C53.1024 64.2363 57.652 44.831 56.3539 33.1573C55.7302 27.5443 52.2313 26.4698 49.9435 25.6997L45.9123 57.3422C45.9123 57.3422 47.9688 24.7935 37.3686 25.6636C37.3686 25.6636 36.5836 36.1447 38.5076 50.0468C38.5375 50.2507 38.5511 50.3601 38.5511 50.3601C38.5368 50.2544 38.5214 50.1509 38.5076 50.0468C38.0938 47.1631 34.7007 25.4065 27.0901 27.7205L27.0885 27.721C27.0885 27.721 27.4156 30.3667 30.0785 41.1517C32.2409 49.9097 42.8548 82.3342 32.6039 92.8472C32.6039 92.8472 33.287 101.28 42.983 111.864C42.983 111.864 51.7187 102.085 63.9971 98.3517C64.9949 98.0483 66.0153 97.7841 67.0581 97.57C67.4109 97.5355 67.7268 97.4732 68.0122 97.3864C73.4723 95.7262 67.61 84.7872 89.2624 73.0932C89.2624 73.0932 88.5281 69.5829 84.7022 67.1279C83.6332 66.4415 82.3492 66.3191 81.19 66.6715L81.1889 66.6736Z" fill="black" style="fill:black;fill-opacity:1;"/>
</svg>
