<svg width="99" height="99" viewBox="0 0 99 99" fill="none" xmlns="http://www.w3.org/2000/svg">
<path d="M50.3584 98.9998C47.7632 98.9998 45.2833 97.9916 43.1831 96.0833C40.5844 93.7213 37.9388 91.3448 35.3221 89.0062C32.0197 93.6493 26.6423 96.4038 20.5054 96.4038L20.0843 96.3984C10.6019 96.1805 2.78049 88.2681 2.61672 78.7588C2.51414 72.7079 5.34142 67.1719 10.0566 63.7621C9.21611 62.8223 8.37387 61.8753 7.53342 60.9284C5.91732 59.11 4.3534 57.3511 2.79669 55.6408C-0.930428 51.5451 -0.932228 45.7966 2.79129 41.6649C5.15965 39.0346 7.51722 36.39 9.87479 33.7453C9.87479 33.7453 13.2456 29.9628 14.4819 28.5837C15.3314 27.635 16.2708 26.7978 17.2732 26.0993C19.2529 24.7221 21.4935 23.9263 23.8006 23.7787C23.8672 22.7075 24.0778 21.6399 24.4305 20.5975C25.5121 17.3947 27.5134 15.355 28.9261 14.0983L32.8206 10.6417C35.6803 8.10506 38.6281 5.49099 41.5022 2.89492C43.5952 1.00098 46.0662 0 48.6469 0C51.2276 0 53.7309 1.01178 55.8258 2.92733C58.4389 5.31456 61.1024 7.71799 63.7335 10.0764C66.7498 5.80965 71.5099 3.11276 77.0889 2.65548C77.5622 2.61587 78.0481 2.59607 78.5268 2.59607C87.6997 2.59607 95.3555 9.64614 96.3345 18.9934C96.9986 25.327 94.0526 31.5417 88.9289 35.2557C91.3422 37.9472 93.7772 40.6567 96.196 43.3284C99.9429 47.4637 99.9357 53.2518 96.1726 57.3997C92.2133 61.7673 88.2216 66.2411 84.3559 70.5709L84.1364 70.8176C81.642 73.6116 78.5952 75.1617 75.2856 75.3364C75.0966 78.5806 73.5849 81.6645 70.925 84.0409L70.0036 84.8637C65.8931 88.5345 61.6441 92.3314 57.521 96.0905C55.392 98.0222 52.9823 98.9998 50.3584 98.9998Z" fill="#EAA1FF" style="fill:#EAA1FF;fill:color(display-p3 0.9176 0.6314 1.0000);fill-opacity:1;"/>
<path d="M50.3584 93.4782C48.7135 93.4782 47.5923 92.6321 46.8922 91.9948C43.1057 88.5489 39.0672 84.9465 35.8224 82.0534L33.1013 79.6211C32.439 86.1797 27.229 90.8822 20.5072 90.8822H20.1941C13.6541 90.7291 8.24968 85.2489 8.1363 78.667C8.02113 72.0508 12.9342 66.567 19.4274 65.9117C18.6662 65.0637 17.9013 64.2194 17.1365 63.3732L16.8809 63.0906C16.0369 62.1562 15.1928 61.2236 14.3524 60.2839L11.6619 57.2629C10.0997 55.5058 8.48544 53.6893 6.88194 51.9249C5.08047 49.9446 5.08586 47.3683 6.89453 45.361C9.2719 42.7217 11.6349 40.0716 13.9978 37.4179C15.5293 35.7004 17.0609 33.9829 18.5942 32.269C19.1647 31.6335 19.782 31.0826 20.4298 30.6307C21.7004 29.7432 23.1384 29.2733 24.5871 29.2733C28.0209 29.2733 30.7186 31.7829 31.1505 35.3782C31.361 37.1263 31.5464 38.3379 32.1889 39.1967C33.2057 40.5559 34.7174 41.3336 36.3353 41.3336C36.8608 41.3336 37.3809 41.249 37.8848 41.0834C39.9833 40.3921 41.333 38.4783 41.3204 36.2081C41.3078 33.5688 39.249 31.4517 36.5315 31.2806C35.8044 31.2356 34.8974 31.1816 33.9274 30.8684C32.2105 30.3121 30.8193 29.1238 30.0131 27.5234C29.205 25.9157 29.0791 24.0847 29.6586 22.3672C30.3136 20.4283 31.5716 19.1356 32.5938 18.2247L36.2202 15.0039C39.195 12.3682 42.2383 9.66954 45.2023 6.99246C45.9006 6.36234 47.0164 5.52339 48.6469 5.52159C50.4879 5.52159 51.7027 6.63779 52.1022 7.00326C56.7778 11.2754 61.4767 15.4738 65.9111 19.4273C66.748 12.9713 71.1392 8.68296 77.5406 8.15727C77.8807 8.13026 78.2191 8.11586 78.5538 8.11586C84.8742 8.11586 90.1581 13.0397 90.8455 19.5695C91.5168 25.9751 86.6703 32.125 80.2617 32.9999C80.0331 33.0305 79.8028 33.0575 79.5742 33.0828L80.7152 34.3574C84.4423 38.5251 88.2954 42.8351 92.1071 47.0371C93.9608 49.084 93.9518 51.6351 92.0855 53.6929C88.0255 58.1703 83.8196 62.8853 80.1069 67.0459L80.0061 67.1575C79.4176 67.8164 77.6216 69.8328 74.6557 69.8328C73.961 69.8328 73.2574 69.7175 72.5645 69.4907C70.9232 68.9524 68.1337 67.4077 67.8836 63.1284C67.727 60.4693 66.7408 58.9804 64.5884 58.1451C63.8865 57.8732 63.2152 57.7346 62.5925 57.7346C61.4101 57.7346 60.3357 58.2207 59.3081 59.2181C57.7226 60.7555 57.3447 62.374 58.0825 64.4678C58.8078 66.522 60.1162 67.5284 62.4557 67.8308C62.4845 67.8344 62.5115 67.8344 62.5385 67.8344C62.8625 67.8434 63.0874 67.8524 63.307 67.8722C67.6172 68.2737 69.0515 71.1182 69.5231 72.7781C70.0522 74.6378 70.0882 77.3869 67.2483 79.9236L66.298 80.7733C62.4054 84.2498 57.9962 88.1907 53.8011 92.011C53.4016 92.3746 52.1868 93.48 50.3566 93.48L50.3584 93.4782Z" fill="#FCEA4F" style="fill:#FCEA4F;fill:color(display-p3 0.9882 0.9176 0.3098);fill-opacity:1;"/>
<path d="M48.6469 6.22733C50.209 6.22733 51.2744 7.2031 51.6253 7.52356C56.5312 12.0046 61.4353 16.3848 66.0389 20.4859C66.2242 20.6515 66.361 20.7559 66.4546 20.819C66.478 20.7397 66.5068 20.5921 66.5284 20.3203C67.0521 13.7671 71.2939 9.37789 77.5981 8.8612C77.9185 8.8342 78.2388 8.82159 78.5538 8.82159C84.5233 8.82159 89.4958 13.4844 90.1418 19.6415C90.7735 25.6762 86.206 31.4733 80.1663 32.2978C79.8279 32.3446 79.4914 32.3788 79.1531 32.413C78.7715 32.4526 78.4836 32.4815 78.201 32.5247C78.3378 32.7551 78.5934 33.0414 78.6906 33.153L80.0493 34.6724C83.8304 38.8996 87.7213 43.2528 91.5798 47.5088C93.1923 49.2893 93.1833 51.4227 91.5582 53.214C87.5431 57.6428 83.4939 62.1796 79.576 66.5706L79.477 66.6804C78.9389 67.2853 77.2976 69.1217 74.6521 69.1217C74.0348 69.1217 73.4031 69.019 72.7804 68.8138C71.3101 68.3313 68.8104 66.9451 68.5836 63.0816C68.4108 60.1434 67.2554 58.4169 64.8385 57.4808C64.0538 57.1747 63.3052 57.0217 62.5871 57.0217C61.2212 57.0217 59.9704 57.578 58.8096 58.705C57.0243 60.4351 56.5798 62.3398 57.4095 64.6965C58.2247 67.0063 59.7508 68.1873 62.3585 68.5258C62.4215 68.5348 62.4845 68.5348 62.5457 68.5348C62.8193 68.542 63.0298 68.551 63.235 68.569C67.1259 68.9326 68.4162 71.4783 68.8374 72.9654C69.3107 74.6307 69.3377 77.0971 66.7713 79.3889L66.1001 79.9884C62.1228 83.5405 57.6164 87.566 53.3206 91.4799C52.9697 91.7985 51.9097 92.7635 50.3511 92.7635C48.951 92.7635 47.9738 92.0218 47.3601 91.4637C43.6924 88.1277 39.9275 84.7665 36.2849 81.5169L33.2759 78.829C33.0167 78.5932 32.727 78.3321 32.5326 78.2151C32.4822 78.4653 32.4498 78.7228 32.4336 78.9928C32.0503 85.4668 27.0292 90.1674 20.4982 90.1674H20.1905C14.0356 90.0234 8.94074 84.8547 8.83276 78.6454C8.72118 72.2002 13.6649 66.8911 20.0861 66.5598C20.4676 66.5382 20.6836 66.5148 20.806 66.495C20.761 66.3996 20.6584 66.2285 20.4226 65.9639C19.5012 64.9359 18.5762 63.9133 17.6511 62.8907C16.7225 61.8627 15.7939 60.8384 14.8707 59.805L12.1801 56.7858C10.618 55.0269 9.00013 53.2086 7.39483 51.4425C5.83271 49.7232 5.83631 47.5718 7.40922 45.8273C9.78659 43.1862 12.1514 40.5361 14.5143 37.8824C16.0458 36.1649 17.5756 34.4492 19.1107 32.7335C19.6416 32.143 20.2157 31.6281 20.824 31.2032C21.9758 30.3985 23.2733 29.9736 24.5781 29.9736C27.6429 29.9736 30.0527 32.2276 30.4414 35.4556C30.6664 37.3189 30.8679 38.6134 31.6166 39.6125C32.7774 41.1626 34.5248 42.0322 36.3281 42.0322C36.9184 42.0322 37.5159 41.9386 38.099 41.7459C40.4944 40.9574 42.0331 38.779 42.0205 36.1955C42.0043 33.1782 39.6611 30.7603 36.5693 30.5659C35.826 30.5209 35.0144 30.4705 34.1397 30.186C32.6028 29.6892 31.3592 28.627 30.6376 27.1957C29.9159 25.759 29.8043 24.1208 30.3226 22.5833C30.9255 20.8028 32.1007 19.5965 33.0581 18.7432L36.6845 15.5242C39.6395 12.9047 42.6954 10.197 45.6702 7.50916C46.2821 6.95646 47.2557 6.22193 48.6415 6.22012M48.6469 4.81407C46.5574 4.81587 45.1825 6.0599 44.729 6.46677C41.8081 9.10424 38.8063 11.7669 35.9034 14.3396L35.7522 14.4728L32.1241 17.6936C31.0353 18.6622 29.6963 20.043 28.9873 22.1368C28.3466 24.0361 28.487 26.0597 29.3778 27.8366C30.2722 29.6099 31.8091 30.9242 33.7078 31.5381C34.7606 31.8783 35.718 31.9378 36.4865 31.9846C38.8243 32.1304 40.5987 33.9469 40.6113 36.2099C40.6203 38.1669 39.4631 39.816 37.6617 40.4101C37.228 40.5541 36.7816 40.6261 36.3317 40.6261C34.937 40.6261 33.6322 39.951 32.7504 38.7718C32.2141 38.0553 32.0449 36.9283 31.8469 35.2918C31.3718 31.331 28.3826 28.5657 24.5817 28.5657C22.9872 28.5657 21.4089 29.0788 20.0195 30.0492C19.3284 30.5317 18.6698 31.1186 18.0633 31.7937C16.6613 33.3618 15.263 34.9299 13.8628 36.498L13.4633 36.9445C10.8214 39.9114 8.6024 42.3976 6.36182 44.8857C4.29399 47.1811 4.2904 50.13 6.35282 52.3984C7.98332 54.1916 9.65341 56.0711 11.1255 57.7292L13.8178 60.7501C14.6241 61.6521 15.4322 62.5469 16.242 63.4416L16.6037 63.8431C17.0753 64.3634 17.5468 64.8837 18.0165 65.4058C11.8328 66.6606 7.30844 72.1462 7.42182 78.676C7.5424 85.6342 13.2564 91.4241 20.1581 91.5843L20.4874 91.5879C27.1318 91.5879 32.3724 87.2473 33.598 81.02L35.3437 82.5791C38.7595 85.627 42.6306 89.0801 46.4099 92.5169C46.8634 92.9291 48.2437 94.184 50.3511 94.184C51.7459 94.184 53.0632 93.6295 54.269 92.5349C58.4821 88.6966 62.911 84.7395 66.8181 81.2504L67.0413 81.0506L67.7126 80.4493C70.1385 78.2817 71.0204 75.4876 70.1961 72.5855C69.7768 71.1092 68.2705 67.6274 63.3646 67.1683C63.118 67.1449 62.8823 67.1359 62.5799 67.1287H62.5745H62.5439H62.5151C60.4365 66.8532 59.3765 66.0395 58.7394 64.232C58.0879 62.3848 58.3921 61.0796 59.7904 59.7258C60.6813 58.8598 61.5937 58.4403 62.5835 58.4403C63.118 58.4403 63.7047 58.5628 64.322 58.8022C66.2044 59.5313 67.0287 60.797 67.1691 63.1698C67.4552 68.0415 70.8764 69.6816 72.3341 70.1622C73.099 70.4125 73.8782 70.5403 74.6467 70.5403C76.8243 70.5403 78.8021 69.5591 80.5262 67.6256L80.6234 67.5176C84.5233 63.1482 88.5527 58.6312 92.6002 54.1682C94.7004 51.8529 94.7094 48.868 92.6218 46.5636C88.9433 42.5057 85.2197 38.3415 81.6186 34.316L81.0967 33.7327L80.9761 33.5977C87.437 32.3716 92.2277 26.0597 91.5402 19.4957C90.8167 12.6059 85.2306 7.40834 78.5466 7.40834C78.1902 7.40834 77.8303 7.42274 77.474 7.45335C71.1517 7.97184 66.6868 11.9632 65.4198 18.0483C61.2805 14.3576 56.9307 10.4635 52.5701 6.47937C51.3626 5.37397 50.0398 4.81407 48.6397 4.81407H48.6469Z" fill="black" style="fill:black;fill-opacity:1;"/>
<path d="M44.9109 36.1901C44.8875 31.6605 41.362 27.9825 36.7548 27.6962C36.1717 27.6602 35.5922 27.6314 35.0325 27.4514C33.3804 26.9167 32.504 25.1703 33.0619 23.5177C33.4236 22.4465 34.1579 21.6435 34.9803 20.9108C39.1934 17.1643 43.4244 13.4394 47.6086 9.66055C48.3897 8.95483 48.8702 8.91522 49.68 9.65515C54.46 14.0209 59.2867 18.3363 64.1206 22.6427C65.0636 23.4834 66.129 24.137 67.4914 23.5735C68.8375 23.0154 69.2946 21.9478 69.4062 20.5525C69.8147 15.4198 72.9894 12.1378 77.8341 11.7417C82.5744 11.3529 86.7532 14.9859 87.2733 19.9458C87.7449 24.4484 84.2931 28.825 79.7759 29.4425C79.092 29.5361 78.3992 29.5739 77.7189 29.682C75.6205 30.0132 74.6325 31.9864 75.6403 33.8551C75.8796 34.298 76.2054 34.7031 76.5419 35.0793C80.8323 39.879 85.1227 44.6805 89.4455 49.4513C90.0736 50.1444 90.0466 50.5945 89.4257 51.2786C85.3693 55.7507 81.3506 60.2569 77.3302 64.7613C76.3403 65.8703 75.2156 66.5778 73.6822 66.0737C72.1813 65.5822 71.5586 64.457 71.4686 62.9141C71.2437 59.0957 69.5394 56.2061 65.8861 54.7911C62.5225 53.4876 59.3857 54.1358 56.8067 56.6346C54.2242 59.1371 53.4971 62.266 54.6939 65.6596C55.8907 69.0532 58.4264 70.931 61.9952 71.3919C62.3191 71.4333 62.6503 71.4171 62.976 71.4477C64.4769 71.5881 65.6305 72.211 66.0714 73.7593C66.4782 75.1942 65.9203 76.2924 64.8585 77.2411C60.3557 81.263 55.8493 85.285 51.3861 89.3501C50.5925 90.0738 50.1012 90.0522 49.3111 89.3339C44.7093 85.1499 40.059 81.0182 35.4213 76.8739C34.8544 76.3662 34.3091 75.8279 33.5874 75.52C31.9281 74.8161 30.168 75.6784 29.7613 77.4248C29.6551 77.882 29.5921 78.3555 29.5633 78.8254C29.2664 83.8159 25.3341 87.3986 20.268 87.2815C15.6645 87.1753 11.8096 83.2542 11.7286 78.5986C11.644 73.6693 15.3333 69.6996 20.2446 69.4457C21.2776 69.3917 22.2855 69.2891 23.0305 68.4447C24.1265 67.2007 23.9735 65.5966 22.5824 64.0429C20.7395 61.9834 18.8733 59.9418 17.0286 57.8822C14.5289 55.0917 12.0579 52.2742 9.5384 49.5035C8.94271 48.8482 8.9841 48.4017 9.56179 47.7608C13.4815 43.4094 17.3634 39.0238 21.2686 34.6617C21.6304 34.2584 22.0407 33.8821 22.4834 33.5725C24.7042 32.0242 27.2615 33.117 27.5855 35.8031C27.8212 37.7708 28.075 39.69 29.315 41.3445C31.6131 44.414 35.423 45.6706 39.0098 44.4896C42.5875 43.3104 44.9325 40.0122 44.9145 36.1829L44.9109 36.1901Z" fill="#1D1D1B" style="fill:#1D1D1B;fill:color(display-p3 0.1137 0.1137 0.1059);fill-opacity:1;"/>
<path d="M59.4846 24.7977C59.1696 24.7977 58.8547 24.6843 58.6045 24.4538L48.2258 14.9193L39.4254 23.1414C38.8999 23.6311 38.0775 23.6041 37.5862 23.0784C37.0949 22.5527 37.1237 21.7281 37.6492 21.2385L46.8941 12.6005C47.5959 11.9002 48.7657 11.8768 49.5252 12.5771L60.3646 22.5347C60.8937 23.0208 60.9297 23.8453 60.442 24.3746C60.1864 24.6537 59.8355 24.7959 59.4828 24.7959L59.4846 24.7977ZM48.7009 14.4764L48.6685 14.507C48.6793 14.498 48.6901 14.4872 48.7009 14.4764Z" fill="white" style="fill:white;fill-opacity:1;"/>
<path d="M22.5337 59.3765C22.1864 59.3765 21.839 59.2379 21.5817 58.9624L12.9469 49.7141C12.2486 49.0084 12.227 47.8418 12.9235 47.0821L22.8792 36.2369C23.3651 35.7076 24.1894 35.6716 24.7185 36.1595C25.2476 36.6456 25.2836 37.4701 24.7959 37.9994L15.2648 48.3819L23.4839 57.1837C23.9752 57.7094 23.9464 58.5339 23.4209 59.0236C23.169 59.2577 22.8504 59.3747 22.5319 59.3747L22.5337 59.3765ZM14.8239 47.9102L14.8509 47.939C14.8419 47.93 14.8329 47.9192 14.8239 47.9102Z" fill="white" style="fill:white;fill-opacity:1;"/>
<path d="M84.6024 20.4571C84.0013 20.4571 83.4596 20.0376 83.3301 19.4237C82.801 16.9213 80.0115 15.4036 77.8735 15.7168C74.6376 16.1921 73.3743 19.1501 73.3221 19.2761C73.0467 19.9386 72.2873 20.2573 71.625 19.9854C70.9627 19.7154 70.6406 18.961 70.9087 18.2967C70.9825 18.1149 72.7552 13.8373 77.4937 13.1406C80.7817 12.6581 85.0325 14.8977 85.8748 18.8854C86.0242 19.5893 85.5742 20.2807 84.8706 20.4301C84.7788 20.4499 84.6888 20.4589 84.6006 20.4589L84.6024 20.4571Z" fill="white" style="fill:white;fill-opacity:1;"/>
</svg>
