<svg width="14" height="13" viewBox="0 0 14 13" fill="none" xmlns="http://www.w3.org/2000/svg">
<path d="M14 6.92474C13.9647 7.16099 13.9358 7.39835 13.8924 7.63293C13.5956 9.21862 12.7942 10.5249 11.4929 11.5457C10.5585 12.2788 9.49216 12.7695 8.29562 12.9239C5.60342 13.2714 3.39145 12.4309 1.72278 10.3628C1.07822 9.56386 0.691145 8.64764 0.495001 7.65728C0.44582 7.40941 0.554016 7.25062 0.814962 7.20359C1.09674 7.15269 1.37909 7.10622 1.66261 7.06472C1.89289 7.03097 2.03522 7.16099 2.10002 7.4155C2.17466 7.71039 2.24236 8.01193 2.36097 8.29133C3.01247 9.82501 4.16561 10.8558 5.84122 11.2834C7.59321 11.7305 9.19013 11.3792 10.5793 10.2549C11.5294 9.48585 12.1039 8.49992 12.3047 7.32587C12.7109 4.95509 11.3657 2.6933 9.00961 1.86339C7.34268 1.27636 5.73708 1.4689 4.25934 2.42717C3.91971 2.64738 3.6333 2.94283 3.3226 3.20452C3.30003 3.22389 3.28267 3.24879 3.2387 3.29913C3.5118 3.25321 3.75076 3.21282 3.98972 3.17299C4.29001 3.12319 4.58972 3.07063 4.89059 3.02416C5.13186 2.98653 5.28288 3.07782 5.33264 3.30411C5.39339 3.58075 5.44604 3.85905 5.48886 4.13901C5.52242 4.36087 5.39975 4.50417 5.16716 4.54345C3.84565 4.76753 2.52413 4.9916 1.2032 5.21623C0.918532 5.26437 0.758841 5.15537 0.708503 4.88537C0.476486 3.62557 0.243311 2.36631 0.00955848 1.10706C-0.035572 0.864726 0.0801469 0.69819 0.334729 0.653375C0.594518 0.608006 0.853727 0.563191 1.1141 0.521695C1.40629 0.47522 1.55788 0.586428 1.60822 0.868045C1.69906 1.37374 1.7951 1.87888 1.89289 2.4067C1.93049 2.37185 1.95942 2.34916 1.98315 2.3226C2.65952 1.55134 3.48287 0.965422 4.44102 0.554339C5.05028 0.29264 5.68963 0.126104 6.35386 0.0503053C7.52551 -0.0835872 8.66419 0.0469857 9.756 0.475774C11.3801 1.1137 12.5691 2.2031 13.3392 3.70856C13.7009 4.41509 13.9103 5.16422 13.974 5.94987C13.9763 5.97864 13.9907 6.00686 14 6.03508V6.92419V6.92474Z" fill="white" style="fill:white;fill-opacity:1;"/>
</svg>
