<svg width="16" height="16" viewBox="0 0 16 16" fill="none" xmlns="http://www.w3.org/2000/svg">
<path d="M8.09383 0.197476C9.03638 0.197476 9.97985 0.181872 10.9219 0.202066C11.7641 0.219966 12.5891 0.362244 13.3714 0.690401C14.6092 1.20903 15.3477 2.15495 15.707 3.42168C15.9387 4.23864 16.0009 5.07532 16 5.91798C15.9986 7.5785 16.0028 9.23948 15.9783 10.9C15.9659 11.7385 15.8153 12.5601 15.4845 13.3394C14.9644 14.5657 14.0191 15.2978 12.7554 15.6567C11.9363 15.8894 11.0961 15.9504 10.2498 15.95C8.58261 15.9486 6.91541 15.9532 5.24821 15.9279C4.39503 15.9151 3.55936 15.7632 2.76746 15.4254C1.54435 14.9035 0.818784 13.9622 0.46268 12.7092C0.230497 11.8923 0.168766 11.0556 0.169688 10.2125C0.171531 8.55196 0.167845 6.89098 0.19134 5.23045C0.203317 4.39193 0.35442 3.57039 0.684266 2.79107C1.20437 1.56427 2.15061 0.832679 3.41471 0.475148C4.24531 0.24016 5.09711 0.18279 5.95489 0.180036C6.66756 0.177741 7.38069 0.180036 8.09383 0.180036C8.09383 0.186003 8.09383 0.191969 8.09383 0.197476ZM8.08415 14.8351C8.96958 14.8351 9.855 14.8443 10.7404 14.8319C11.3209 14.8237 11.8963 14.7525 12.4583 14.596C13.5566 14.2904 14.283 13.6083 14.6124 12.5119C14.7884 11.9262 14.8727 11.3259 14.8769 10.7196C14.8884 8.96181 14.8976 7.20307 14.8718 5.44571C14.864 4.90138 14.7838 4.34925 14.6626 3.81777C14.3964 2.65201 13.674 1.88324 12.509 1.54728C11.9373 1.38252 11.3504 1.30266 10.7584 1.29898C9.08567 1.28797 7.41248 1.29439 5.7393 1.29256C5.09388 1.29164 4.45492 1.34718 3.82748 1.50276C2.64031 1.7965 1.8613 2.51523 1.53007 3.69936C1.37344 4.25929 1.29467 4.83207 1.29144 5.41037C1.28177 7.16819 1.27163 8.92693 1.29743 10.6843C1.30526 11.2286 1.38542 11.7803 1.50658 12.3122C1.76041 13.4266 2.43485 14.1912 3.546 14.5451C4.15272 14.7383 4.77832 14.8209 5.41083 14.831C6.30178 14.8452 7.1932 14.8347 8.08415 14.8347V14.8351Z" fill="white" style="fill:white;fill-opacity:1;"/>
<path d="M10.2936 11.4599C9.66201 11.4599 9.03042 11.4613 8.39837 11.4595C8.14638 11.4585 7.95013 11.3511 7.84924 11.118C7.75757 10.9064 7.79396 10.7031 7.95105 10.5287C8.06991 10.397 8.22608 10.3442 8.39837 10.3437C9.65603 10.3423 10.9137 10.3401 12.1713 10.3446C12.5297 10.346 12.7785 10.5902 12.7744 10.9119C12.7702 11.235 12.5196 11.4585 12.1534 11.4595C11.5333 11.4608 10.9128 11.4595 10.2927 11.4595L10.2936 11.4599Z" fill="white" style="fill:white;fill-opacity:1;"/>
<path d="M10.2926 6.32C9.64398 6.32 8.99488 6.32322 8.34624 6.31817C8.09794 6.31633 7.88649 6.14743 7.82153 5.92162C7.75611 5.69352 7.84687 5.43512 8.06016 5.31166C8.1546 5.25705 8.27484 5.21987 8.38356 5.21941C9.65227 5.21299 10.9214 5.21391 12.1901 5.2162C12.5237 5.21666 12.7715 5.4544 12.7752 5.7642C12.7789 6.08501 12.537 6.31817 12.1874 6.32C11.5558 6.32322 10.9242 6.32092 10.2926 6.32092V6.32Z" fill="white" style="fill:white;fill-opacity:1;"/>
<path d="M4.4775 5.56322C4.91469 5.12675 5.321 4.72286 5.72548 4.3176C5.86829 4.17486 6.0346 4.10143 6.23822 4.13861C6.66342 4.21571 6.84401 4.68293 6.58096 5.02348C6.54963 5.06433 6.51324 5.10105 6.47639 5.13776C5.97286 5.64033 5.46934 6.14243 4.96444 6.64408C4.64058 6.96535 4.34621 6.96581 4.0265 6.64775C3.87171 6.494 3.71554 6.34208 3.56398 6.18558C3.33916 5.9538 3.33087 5.61509 3.54002 5.39754C3.75608 5.17311 4.10067 5.17127 4.34298 5.39754C4.38859 5.44022 4.42268 5.4953 4.47796 5.56414L4.4775 5.56322Z" fill="white" style="fill:white;fill-opacity:1;"/>
<path d="M4.53146 10.7077C4.56647 10.6476 4.5895 10.5834 4.63281 10.5393C4.99582 10.1721 5.36114 9.80725 5.72922 9.44559C5.9743 9.20509 6.32304 9.19913 6.54462 9.42402C6.76529 9.64799 6.75884 9.98166 6.51929 10.2222C5.98536 10.7591 5.44913 11.2934 4.91014 11.8253C4.64893 12.0832 4.33613 12.0787 4.07308 11.8207C3.90493 11.656 3.73817 11.4907 3.57324 11.3227C3.33968 11.085 3.3277 10.744 3.54284 10.5232C3.76028 10.2997 4.1127 10.3084 4.35916 10.5434C4.40016 10.5824 4.44116 10.6214 4.531 10.7068L4.53146 10.7077Z" fill="white" style="fill:white;fill-opacity:1;"/>
</svg>
