<?xml version="1.0" encoding="UTF-8"?>
<svg xmlns="http://www.w3.org/2000/svg" version="1.1" viewBox="0 0 100 100">
  <!-- Generator: Adobe Illustrator 28.7.0, SVG Export Plug-In . SVG Version: 1.2.0 Build 136)  -->
  <g>
    <g id="Livello_1">
      <g>
        <path d="M79.2,72.5c0-5.5,0-18.3,0-19.8,0-1.4-1-2.3-2.4-2.3-1.6,0-3.2,0-4.8,0s-3.1,0-4.7,0c-.7,0-1.4.3-1.8.8-.5.5-.6,1.2-.5,2,0,.2,0,.5.1.7,0,.2,0,.3,0,.5.2,1-.5,1.9-1.5,2.1-.1,0-.2,0-.3,0-.8,0-1.5-.6-1.7-1.4-.1-.5,0-1.1,0-1.7.2-1.1-.2-1.8-.5-2.2-.3-.4-.9-.8-2-.8-1.2,0-2.3,0-3.5,0h-2.2s-2.2,0-2.2,0c0-.4,0-.8,0-1.2,0-1.1,0-2.3,0-3.4,2.5-.6,4.2-2.3,4.8-4.7.7-2.5,0-4.8-1.9-6.6-.8-.7-1.7-1.2-2.9-1.5v-2.2c0-1.8,0-3.6,0-5.3,0-1.9-.9-2.8-2.8-2.8h-2.7s-7.2,0-7.2,0c-4.1,0-8.3,0-12.4,0-.9,0-1.7.1-2.4.3-3.2.9-5.2,3.7-5.2,7.3,0,10.4,0,20.7,0,31.1v10.2c0,.4,0,.9,0,1.3,0,1,0,2,0,3,.1,3.1,1.6,5.4,4.5,6.7.4.2.8.3,1.1.4.2,0,.3,0,.4.1h.2s.2,0,.2,0h48.2c0-.1,0-.1.1-.2,3.3-.7,5.5-3.2,5.7-6.4.1-1.3,0-2.6,0-3.8h0ZM74.5,72.7c0,.4,0,.9,0,1.3,0,.5,0,.9,0,1.4,0,1.9-1,2.9-2.9,2.9h-8.9s-5.8,0-5.8,0h-5.6s0-2.1,0-2.1v-5.3c0-1.5-.3-2.9-2.6-2.9-.1,0-.3,0-.4,0h-.1c-.6,0-1.1-.2-1.4-.5-.3-.3-.5-.8-.5-1.3,0-1,.8-1.8,1.9-1.8s.1,0,.2,0c.2,0,.3,0,.5,0,1.7,0,2.5-.9,2.5-2.8,0-1.6,0-3.1,0-4.7v-1.7s5.5,0,5.5,0c.4,3.8,3.4,5.9,6.3,6,.1,0,.2,0,.3,0,3.4,0,5.7-2.2,6.5-6.1h4.6v.7c0,3.8,0,12.6,0,16.8ZM49.7,41.1c0,0-.2,0-.3,0-.2,0-.3,0-.4,0-1.5,0-2.4,1-2.4,2.6,0,1.6,0,3.2,0,4.9v1.9c0,0-.1,0-.2,0-.4,0-.8,0-1.2,0-.6,0-1.1,0-1.6,0-.1,0-.3,0-.4,0-.6,0-1,0-1.4-.9-1-2-3-3.2-5.4-3.2-.3,0-.6,0-.9,0-2.5.3-4.3,1.6-5.3,4,0,0,0,0,0,0-1.2,0-2.4,0-3.6,0h-2s-1.1,0-1.1,0c0-6.7,0-13.5,0-20.2,0-1.9,1-2.9,2.8-2.9,2.8,0,5.6,0,8.5,0h9.4s2.4,0,2.4,0v3.2c0,1.4,0,2.7,0,4.1,0,1.2.3,2.8,2.6,2.8s.3,0,.4,0c0,0,0,0,.1,0,.6,0,1.1.2,1.4.6.3.3.5.8.5,1.3,0,1-.8,1.8-1.9,1.8ZM34.4,52.8c.1-.9.5-1.4,1.3-1.6.2,0,.5-.1.7-.1.5,0,.9.2,1.2.6.2.3.4.7.5,1.1.3,1.7,1.1,2.3,2.8,2.3.8,0,1.6,0,2.4,0h1.7s1.6,0,1.6,0v1.4c0,1.1,0,2.2,0,3.2-3.1.8-5.1,3.3-5.1,6.5,0,3,2,5.5,5,6.4v5.7h-5.6s-5.8,0-5.8,0h-8.8c-1.9,0-2.9-1-2.9-2.9,0-4.9,0-9.7,0-14.6v-5.6h7.7s.2,0,.2,0h.3c1.6,0,2.4-.8,2.7-2.4Z" fill="white" />
        <path d="M86.8,29c0-2.9,0-5.8,0-8.7,0-3.8-2.8-6.7-6.4-6.7-3,0-6,0-9,0s-4.7,0-7,0h-4.4c-1.4,0-2.3.9-2.3,2.3,0,3,0,5.9,0,8.8,0,1.4.9,2.3,2.3,2.3s.2,0,.3,0c0,0,.1,0,.2,0,.3,0,.7,0,.9.2.7.3,1,1.1.8,1.8-.2.8-.8,1.2-1.7,1.2s0,0-.1,0c-.1,0-.2,0-.3,0-2.1,0-2.3,1.5-2.3,2.5v.7c0,2.3,0,4.6,0,6.9,0,1.6.8,2.4,2.4,2.4,1,0,2,0,2.9,0h1.9s1.9,0,1.9,0c.8,3.6,2.7,5.4,5.7,5.4h.1c1.4,0,2.6-.4,3.6-1.3,1.3-1.1,2.1-2.5,2.2-4.2h1.6s1.7,0,1.7,0h2.4c1.6,0,2.5-.8,2.5-2.5,0-1.8,0-3.6,0-5.4v-2.2s0-3.7,0-3.7ZM74.1,41.3h0c0,.6.1,1.1,0,1.5-.1.7-.8,1.2-1.6,1.2s-.2,0-.3,0c-.8-.1-1.4-1-1.3-1.9,0-.2,0-.4.1-.6v-.2c.2-1,0-1.6-.4-2-.3-.4-.9-.8-1.9-.8-1,0-2,0-3,0h-2s-1.9,0-1.9,0v-4.2c1.1-.3,1.9-.8,2.6-1.4,1.7-1.6,2.2-3.7,1.6-5.8-.6-2.2-2.1-3.6-4.3-4.2,0-1.4,0-2.8,0-4.2v-.8s4.9,0,4.9,0h5.1c2.7,0,5.4,0,8.1,0,1.5,0,2.5.9,2.5,2.4,0,4.8,0,9.6,0,14.4v3.8h-2.2s-1.6,0-1.6,0c-.8,0-1.5,0-2.3,0-.8,0-1.5.3-1.9.7-.4.5-.6,1.2-.4,2Z" fill="white" />
      </g>
    </g>
  </g>
</svg>